<svg width="20" height="20" viewBox="0 0 20 20" fill="none" xmlns="http://www.w3.org/2000/svg">
<path d="M14.0632 12.8757H13.1745L12.8595 12.572C14.2095 10.997 14.907 8.8482 14.5245 6.56445C13.9957 3.43695 11.3857 0.939454 8.2357 0.556954C3.47695 -0.0280462 -0.528046 3.97695 0.0569538 8.7357C0.439454 11.8857 2.93695 14.4957 6.06445 15.0245C8.3482 15.407 10.497 14.7095 12.072 13.3595L12.3757 13.6745V14.5632L17.157 19.3445C17.6182 19.8057 18.372 19.8057 18.8332 19.3445C19.2945 18.8832 19.2945 18.1295 18.8332 17.6682L14.0632 12.8757ZM7.3132 12.8757C4.51195 12.8757 2.2507 10.6145 2.2507 7.8132C2.2507 5.01195 4.51195 2.7507 7.3132 2.7507C10.1145 2.7507 12.3757 5.01195 12.3757 7.8132C12.3757 10.6145 10.1145 12.8757 7.3132 12.8757Z" fill="white"/>
</svg>
