<svg width="35" height="36" viewBox="0 0 35 36" fill="none" xmlns="http://www.w3.org/2000/svg">
<path d="M7 29.2502C7.02215 27.6051 7.7054 25.8131 8.90189 24.6571C10.0984 23.5011 11.7119 22.8525 13.3934 22.8517H21.0763C22.7578 22.8525 24.7547 23.5011 25.9512 24.6571C27.1477 25.8131 27.9778 27.6051 28 29.2502C25.1917 31.7264 21.5364 32.8752 17.7561 32.8752C13.9758 32.8752 9.8083 31.7264 7 29.2502ZM23.3903 13.1966C23.3903 14.3118 22.999 15.8944 22.3659 16.8216C21.7327 17.7489 20.8293 18.3752 19.8049 18.8932C18.7805 19.4112 16.2195 19.4109 15.1951 18.8931C14.1708 18.3752 13.9662 18.2299 13.1604 17.4414C12.3545 16.6528 11.8057 15.6482 11.5834 14.5544C11.361 13.4607 11.4751 12.327 11.9113 11.2968C12.3474 10.2665 13.1464 9.05376 14.1708 8.53593C15.1951 8.0181 16.2195 7.50024 17.2439 7.50024C18.2683 7.50024 20.2609 7.99654 21.3415 9.05394C22.4221 10.1113 23.3903 11.7013 23.3903 13.1966Z" fill="white"/>
<path d="M30.9598 29.1622C32.7558 27.0024 34.0049 24.4421 34.6013 21.6979C35.1978 18.9537 35.124 16.1064 34.3864 13.3967C33.6487 10.687 32.2688 8.19464 30.3634 6.1305C28.458 4.06636 26.0831 2.49112 23.4396 1.53801C20.7961 0.584904 17.9618 0.281971 15.1764 0.654835C12.391 1.0277 9.73637 2.06539 7.43715 3.68014C5.13793 5.29489 3.26171 7.4392 1.96718 9.9317C0.672658 12.4242 -0.00209209 15.1916 4.87271e-06 17.9997C0.000984615 22.0825 1.44087 26.0345 4.06699 29.1622C4.15456 29.2679 4.22961 29.3789 4.31993 29.482C4.43252 29.6115 4.55311 29.732 4.6702 29.858C5.02047 30.2371 5.37999 30.602 5.75853 30.9455C5.87299 31.0494 5.99171 31.147 6.1088 31.2476C6.5091 31.5925 6.91992 31.9191 7.34725 32.2242C7.40241 32.2632 7.45132 32.3109 7.50687 32.35C10.4367 34.4102 13.9319 35.5 17.5145 35.5C21.0971 35.5 24.5923 34.4099 27.5222 32.3497C27.5777 32.3106 27.6266 32.263 27.6818 32.224C28.1086 31.9189 28.5199 31.5922 28.9202 31.2474C29.0373 31.1474 29.156 31.0491 29.2705 30.9452C29.6489 30.6016 30.0086 30.2367 30.3588 29.8577C30.4755 29.732 30.5958 29.6112 30.7091 29.4817C30.799 29.3786 30.8722 29.2679 30.9598 29.1622ZM17.5134 7.99969C18.6268 7.99969 19.7151 8.32959 20.6409 8.94768C21.5666 9.56576 22.2881 10.4443 22.7142 11.4721C23.1403 12.4999 23.2517 13.6309 23.0345 14.7221C22.8173 15.8132 22.2812 16.8155 21.4939 17.6022C20.7066 18.3889 19.7036 18.9246 18.6116 19.1416C17.5196 19.3587 16.3878 19.2473 15.3591 18.8215C14.3305 18.3958 13.4514 17.6748 12.8328 16.7498C12.2142 15.8248 11.8841 14.7372 11.8841 13.6247C11.8841 12.1329 12.4772 10.7021 13.5329 9.64722C14.5886 8.59233 16.0204 7.99969 17.5134 7.99969ZM7.51462 29.1622C7.53623 27.5209 8.20369 25.9541 9.37259 24.8008C10.5415 23.6475 12.1178 23.0005 13.7605 22.9997H21.2663C22.9089 23.0005 24.4853 23.6476 25.6542 24.8009C26.823 25.9542 27.4905 27.521 27.5122 29.1622C24.7686 31.6326 21.2065 32.9997 17.5134 32.9997C13.8203 32.9997 10.2582 31.6326 7.51462 29.1622Z" fill="#343434"/>
</svg>
