<svg width="35" height="36" viewBox="0 0 35 36" fill="none" xmlns="http://www.w3.org/2000/svg">
<rect y="0.5" width="35" height="35" rx="17.5" fill="#343434"/>
<path d="M14.875 29.3752C15.8415 29.3752 16.625 28.5917 16.625 27.6252C16.625 26.6587 15.8415 25.8752 14.875 25.8752C13.9085 25.8752 13.125 26.6587 13.125 27.6252C13.125 28.5917 13.9085 29.3752 14.875 29.3752Z" fill="white"/>
<path d="M22.75 29.3752C23.7165 29.3752 24.5 28.5917 24.5 27.6252C24.5 26.6587 23.7165 25.8752 22.75 25.8752C21.7835 25.8752 21 26.6587 21 27.6252C21 28.5917 21.7835 29.3752 22.75 29.3752Z" fill="white"/>
<path d="M26.8695 12.3552C26.7644 12.2048 26.6319 12.0837 26.4818 12.0006C26.3316 11.9176 26.1675 11.8747 26.0014 11.875H11.7658L11.4791 9.97297C11.4485 9.77037 11.3578 9.58684 11.223 9.45462C11.0882 9.32241 10.9179 9.24996 10.7419 9.25H7.74838C7.5499 9.25 7.35954 9.34219 7.2192 9.50628C7.07885 9.67038 7 9.89294 7 10.125C7 10.3571 7.07885 10.5796 7.2192 10.7437C7.35954 10.9078 7.5499 11 7.74838 11H10.1142L12.2499 25.152C12.2805 25.3546 12.3711 25.5382 12.5059 25.6704C12.6407 25.8026 12.8111 25.875 12.987 25.875H24.9611C25.1596 25.875 25.35 25.7828 25.4903 25.6187C25.6307 25.4546 25.7095 25.2321 25.7095 25C25.7095 24.7679 25.6307 24.5454 25.4903 24.3813C25.35 24.2172 25.1596 24.125 24.9611 24.125H13.6148L13.3509 22.375H24.6543C24.9138 22.3746 25.1653 22.2694 25.3661 22.0772C25.5669 21.8849 25.7048 21.6175 25.7563 21.3201L27.1034 13.4451C27.1358 13.2545 27.1317 13.0579 27.0913 12.8694C27.0508 12.6809 26.9751 12.5053 26.8695 12.3552Z" fill="white"/>
</svg>
