<svg width="130" height="40" viewBox="0 0 130 40" fill="none" xmlns="http://www.w3.org/2000/svg">
<path d="M19.529 0C9.23468 0 0.801378 8.101 0 18.3961L10.5034 22.8282C11.3934 22.207 12.4685 21.843 13.6252 21.843C13.7289 21.843 13.8321 21.8467 13.9344 21.8525L18.6054 14.9429C18.6054 14.9099 18.6049 14.8778 18.6049 14.8452C18.6049 10.6862 21.9198 7.30257 25.9954 7.30257C30.0705 7.30257 33.3854 10.6862 33.3854 14.8452C33.3854 19.0042 30.0705 22.3883 25.9954 22.3883C25.9391 22.3883 25.8833 22.3869 25.8275 22.3856L19.1657 27.2368C19.1693 27.3249 19.1724 27.4149 19.1724 27.5044C19.1724 30.6267 16.6841 33.1658 13.6252 33.1658C10.9402 33.1658 8.69511 31.21 8.18655 28.6198L0.675125 25.4505C3.00085 33.8454 10.5579 40 19.529 40C30.3523 40 39.1258 31.0454 39.1258 20.0007C39.1258 8.95414 30.3518 0 19.529 0Z" fill="#FBFBFB"/>
<path d="M12.2803 30.3468L9.87305 29.3318C10.2997 30.2383 11.0377 30.9974 12.0176 31.4142C14.136 32.3148 16.5782 31.289 17.4611 29.1252C17.8886 28.079 17.8913 26.9238 17.4673 25.8749C17.0443 24.8255 16.246 24.0072 15.2196 23.5705C14.2011 23.1378 13.11 23.1536 12.1514 23.523L14.6379 24.5724C16.2003 25.237 16.9393 27.068 16.2881 28.6626C15.6382 30.2577 13.8427 31.0118 12.2803 30.3468Z" fill="#FBFBFB"/>
<path d="M30.92 14.8453C30.92 12.0743 28.7112 9.81958 25.9956 9.81958C23.2805 9.81958 21.0713 12.0743 21.0713 14.8453C21.0713 17.6168 23.2805 19.8706 25.9956 19.8706C28.7112 19.8701 30.92 17.6163 30.92 14.8453ZM22.3046 14.8367C22.3046 12.7515 23.9609 11.0615 26.004 11.0615C28.0471 11.0615 29.7035 12.7515 29.7035 14.8367C29.7035 16.9219 28.0471 18.6119 26.004 18.6119C23.9609 18.6119 22.3046 16.9214 22.3046 14.8367Z" fill="#FBFBFB"/>
<path d="M60.0535 13.6842L58.7404 16.0397C57.7291 15.3186 56.3585 14.8846 55.1619 14.8846C53.7944 14.8846 52.9483 15.4624 52.9483 16.4973C52.9483 17.7546 54.4514 18.0471 56.6854 18.8654C59.0869 19.7321 60.4672 20.7508 60.4672 22.9955C60.4672 26.0667 58.1008 27.7916 54.6994 27.7916C53.0418 27.7916 51.0421 27.3548 49.5049 26.4004L50.4626 23.789C51.7114 24.4622 53.2052 24.8614 54.5369 24.8614C56.3319 24.8614 57.1851 24.1855 57.1851 23.1863C57.1851 22.0429 55.884 21.6993 53.7838 20.9895C51.3903 20.1739 49.7317 19.1037 49.7317 16.6193C49.7317 13.8176 51.9303 12.2085 55.0937 12.2085C57.2985 12.2085 59.0705 12.9215 60.0535 13.6842Z" fill="#FBFBFB"/>
<path d="M70.3185 15.1729V27.5333H67.2268V15.1729H62.7393V12.4666H74.7927V15.1729H70.3185Z" fill="#FBFBFB"/>
<path d="M81.3105 15.1648V18.5597H87.2271V21.2661H81.3105V24.8021H88.1751V27.5333H78.2197V12.4666H88.1751V15.1648H81.3105Z" fill="#FBFBFB"/>
<path d="M95.0751 24.6081L94.0979 27.5338H90.8569L96.3922 12.467H99.5042L105.196 27.5333H101.845L100.847 24.6077L95.0751 24.6081ZM97.9307 16.0609L95.9146 22.0935H99.9884L97.9307 16.0609Z" fill="#FBFBFB"/>
<path d="M121.062 18.2903L117.022 27.0943H115.278L111.303 18.3689V27.5333H108.343V12.4666H111.297L116.258 23.3426L121.043 12.4666H124.023V27.5333H121.063L121.062 18.2903Z" fill="#FBFBFB"/>
<path d="M130 14.3672C130 15.6621 129.049 16.4691 127.958 16.4691C126.863 16.4691 125.91 15.6621 125.91 14.3672C125.91 13.0728 126.863 12.2712 127.958 12.2712C129.05 12.2712 130 13.0728 130 14.3672ZM126.253 14.3672C126.253 15.4505 127.018 16.1309 127.958 16.1309C128.895 16.1309 129.656 15.4505 129.656 14.3672C129.656 13.2808 128.895 12.6108 127.958 12.6108C127.021 12.6108 126.253 13.289 126.253 14.3672ZM127.986 13.2962C128.516 13.2962 128.694 13.5819 128.694 13.8907C128.694 14.1737 128.53 14.3636 128.329 14.4604L128.804 15.3678H128.415L128.015 14.5635H127.603V15.3678H127.279V13.2962H127.986ZM127.606 14.2601H127.967C128.2 14.2601 128.338 14.1104 128.338 13.9224C128.338 13.7325 128.239 13.6104 127.966 13.6104H127.605V14.2601H127.606Z" fill="#FBFBFB"/>
</svg>
